<svg xmlns="http://www.w3.org/2000/svg" width="760" height="430" viewBox="0 0 760 430" role="img" aria-labelledby="title desc">
<title id="title">Quick Access Menu mockup</title><desc id="desc">Dark controller-friendly panel showing play time, timer, game, and restriction status.</desc>
<rect width="760" height="430" rx="26" fill="#111827"/><rect x="352" y="16" width="392" height="398" rx="18" fill="#202936"/>
<text x="374" y="50" fill="#f8fafc" font-family="sans-serif" font-size="22" font-weight="700">TIME GUARDIAN</text><text x="374" y="84" fill="#93c5fd" font-family="sans-serif" font-size="15">SUMMARY</text>
<rect x="374" y="100" width="348" height="82" rx="12" fill="#111827"/><text x="392" y="129" fill="#cbd5e1" font-family="sans-serif" font-size="14">TODAY</text><text x="392" y="160" fill="#fff" font-family="sans-serif" font-size="27" font-weight="700">1h 14m</text><text x="570" y="129" fill="#cbd5e1" font-family="sans-serif" font-size="14">REMAINING</text><text x="570" y="160" fill="#86efac" font-family="sans-serif" font-size="27" font-weight="700">46m</text>
<rect x="374" y="195" width="348" height="55" rx="12" fill="#111827"/><text x="392" y="218" fill="#cbd5e1" font-family="sans-serif" font-size="13">DETECTED GAME</text><text x="392" y="239" fill="#fff" font-family="sans-serif" font-size="17">Example Game · App 1234</text>
<rect x="374" y="263" width="348" height="55" rx="12" fill="#111827"/><text x="392" y="286" fill="#cbd5e1" font-family="sans-serif" font-size="13">SESSION TIMER</text><text x="392" y="307" fill="#fbbf24" font-family="sans-serif" font-size="17">Running · 18m 42s</text>
<rect x="374" y="332" width="166" height="58" rx="12" fill="#2563eb"/><text x="416" y="368" fill="#fff" font-family="sans-serif" font-size="17" font-weight="700">PAUSE</text><rect x="556" y="332" width="166" height="58" rx="12" fill="#374151"/><text x="591" y="368" fill="#fff" font-family="sans-serif" font-size="17" font-weight="700">+ 5 MIN</text>
<circle cx="170" cy="154" r="88" fill="#1f2937"/><path d="M170 79a75 75 0 1 1-53 22" fill="none" stroke="#60a5fa" stroke-width="12" stroke-linecap="round"/><text x="135" y="153" fill="#fff" font-family="sans-serif" font-size="32" font-weight="700">46m</text><text x="125" y="180" fill="#9ca3af" font-family="sans-serif" font-size="15">remaining</text>
<text x="62" y="298" fill="#d1d5db" font-family="sans-serif" font-size="16">Next warning</text><text x="62" y="326" fill="#fff" font-family="sans-serif" font-size="21" font-weight="700">15 minutes</text><rect x="62" y="349" width="216" height="41" rx="20" fill="#064e3b"/><text x="89" y="375" fill="#a7f3d0" font-family="sans-serif" font-size="15" font-weight="700">TRACKING ONLY · SAFE</text>
</svg>
